<svg xmlns="http://www.w3.org/2000/svg" viewBox="0 0 400 300" width="400" height="300">
  <rect width="400" height="300" fill="#FEF3C7"/>
  <ellipse cx="200" cy="155" rx="120" ry="60" fill="#F59E0B"/>
  <ellipse cx="200" cy="145" rx="120" ry="60" fill="#FBBF24"/>
  <ellipse cx="200" cy="148" rx="100" ry="45" fill="#FDE68A"/>
  <!-- Egg -->
  <ellipse cx="185" cy="130" rx="35" ry="25" fill="white"/>
  <circle cx="185" cy="128" r="12" fill="#FCD34D"/>
  <!-- Bacon strips -->
  <path d="M145 145 Q160 135 175 145 Q190 155 205 145 Q220 135 235 145" stroke="#DC2626" stroke-width="6" fill="none" stroke-linecap="round"/>
  <path d="M150 158 Q165 148 180 158 Q195 168 210 158 Q225 148 240 158" stroke="#B91C1C" stroke-width="5" fill="none" stroke-linecap="round"/>
  <!-- Cheese -->
  <rect x="155" y="150" width="90" height="8" rx="2" fill="#F59E0B" opacity="0.8"/>
  <!-- Bottom roll -->
  <ellipse cx="200" cy="175" rx="120" ry="60" fill="#D97706"/>
  <ellipse cx="200" cy="170" rx="120" ry="55" fill="#F59E0B"/>
  <text x="200" y="265" font-family="Arial, sans-serif" font-size="20" fill="#92400E" font-weight="700" text-anchor="middle">Bacon, Egg &amp; Cheese</text>
</svg>
