<svg xmlns="http://www.w3.org/2000/svg" viewBox="0 0 400 300" width="400" height="300">
  <rect width="400" height="300" fill="#F0FDF4"/>
  <!-- Bowl -->
  <ellipse cx="200" cy="185" rx="140" ry="55" fill="#D1D5DB"/>
  <ellipse cx="200" cy="180" rx="135" ry="50" fill="#E5E7EB"/>
  <ellipse cx="200" cy="175" rx="130" ry="48" fill="#F9FAFB"/>
  <!-- Mixed greens -->
  <ellipse cx="200" cy="155" rx="118" ry="48" fill="#86EFAC"/>
  <ellipse cx="200" cy="150" rx="112" ry="43" fill="#4ADE80"/>
  <path d="M110 148 Q150 130 190 148" fill="#22C55E" opacity="0.7"/>
  <path d="M180 145 Q220 125 260 145" fill="#16A34A" opacity="0.6"/>
  <!-- Tomato wedges -->
  <path d="M140 148 L155 132 L160 150Z" fill="#EF4444"/>
  <path d="M240 145 L252 130 L258 148Z" fill="#EF4444"/>
  <!-- Cucumber slices -->
  <circle cx="175" cy="150" r="12" fill="#86EFAC" stroke="#22C55E" stroke-width="2"/>
  <circle cx="175" cy="150" r="6" fill="#DCFCE7"/>
  <circle cx="225" cy="148" r="12" fill="#86EFAC" stroke="#22C55E" stroke-width="2"/>
  <circle cx="225" cy="148" r="6" fill="#DCFCE7"/>
  <!-- Red onion rings -->
  <circle cx="195" cy="142" r="10" stroke="#9333EA" stroke-width="3" fill="none" opacity="0.5"/>
  <!-- Croutons -->
  <rect x="155" cy="155" width="12" height="10" rx="2" fill="#D97706" transform="rotate(15 161 160)"/>
  <rect x="210" cy="152" width="12" height="10" rx="2" fill="#F59E0B" transform="rotate(-10 216 157)"/>
  <rect x="182" cy="158" width="10" height="9" rx="2" fill="#D97706" transform="rotate(5 187 162)"/>
  <text x="200" y="265" font-family="Arial, sans-serif" font-size="20" fill="#166534" font-weight="700" text-anchor="middle">Garden Salad</text>
</svg>
