<svg xmlns="http://www.w3.org/2000/svg" viewBox="0 0 400 300" width="400" height="300">
  <rect width="400" height="300" fill="#FEF2F2"/>
  <!-- Roll top (toasted) -->
  <path d="M55 140 Q200 75 345 140" fill="#92400E"/>
  <path d="M60 138 Q200 78 340 138" fill="#B45309"/>
  <path d="M65 135 Q200 80 335 135" fill="#D97706"/>
  <!-- Marinara sauce -->
  <path d="M80 145 Q200 138 320 145 L315 170 Q200 178 85 170Z" fill="#DC2626"/>
  <path d="M85 147 Q200 140 315 147 L310 165 Q200 172 90 165Z" fill="#EF4444"/>
  <!-- Meatballs -->
  <circle cx="140" cy="152" r="22" fill="#7C2D12"/>
  <circle cx="140" cy="150" r="21" fill="#92400E"/>
  <circle cx="200" cy="150" r="22" fill="#7C2D12"/>
  <circle cx="200" cy="148" r="21" fill="#92400E"/>
  <circle cx="260" cy="152" r="22" fill="#7C2D12"/>
  <circle cx="260" cy="150" r="21" fill="#92400E"/>
  <!-- Highlight on meatballs -->
  <circle cx="133" cy="143" r="5" fill="#B45309" opacity="0.5"/>
  <circle cx="193" cy="141" r="5" fill="#B45309" opacity="0.5"/>
  <circle cx="253" cy="143" r="5" fill="#B45309" opacity="0.5"/>
  <!-- Melted mozzarella -->
  <path d="M120 155 Q140 162 160 155 Q180 162 200 155 Q220 162 240 155 Q260 162 280 155" stroke="white" stroke-width="6" fill="none" opacity="0.7"/>
  <path d="M135 160 L130 175" stroke="white" stroke-width="5" stroke-linecap="round" opacity="0.5"/>
  <path d="M210 160 L215 176" stroke="white" stroke-width="5" stroke-linecap="round" opacity="0.5"/>
  <!-- Bottom roll -->
  <path d="M55 178 Q200 200 345 178" fill="#92400E"/>
  <path d="M55 175 Q200 195 345 175" fill="#B45309"/>
  <text x="200" y="265" font-family="Arial, sans-serif" font-size="20" fill="#92400E" font-weight="700" text-anchor="middle">Meatball Parm Hero</text>
</svg>
