<svg xmlns="http://www.w3.org/2000/svg" viewBox="0 0 400 300" width="400" height="300">
  <rect width="400" height="300" fill="#FFF7ED"/>
  <!-- Hero roll top -->
  <path d="M60 140 Q200 80 340 140" fill="#D97706"/>
  <path d="M65 138 Q200 82 335 138" fill="#F59E0B"/>
  <path d="M70 136 Q200 85 330 136" fill="#FBBF24"/>
  <!-- Lettuce -->
  <path d="M80 145 Q130 135 180 145 Q230 135 280 145 Q310 138 320 145" fill="#4ADE80"/>
  <!-- Turkey slices -->
  <ellipse cx="150" cy="152" rx="45" ry="8" fill="#FDE68A" transform="rotate(-3 150 152)"/>
  <ellipse cx="220" cy="150" rx="45" ry="8" fill="#FBBF24" transform="rotate(2 220 150)"/>
  <!-- Roast beef -->
  <ellipse cx="180" cy="158" rx="45" ry="8" fill="#9A3412" transform="rotate(2 180 158)"/>
  <ellipse cx="250" cy="157" rx="40" ry="8" fill="#7C2D12" transform="rotate(-2 250 157)"/>
  <!-- Cheese -->
  <path d="M110 162 L130 174 L170 162 L190 174 L230 162 L250 174 L290 162" stroke="#F59E0B" stroke-width="5" fill="none" opacity="0.8"/>
  <!-- Tomato -->
  <circle cx="160" cy="168" r="12" fill="#EF4444" opacity="0.8"/>
  <circle cx="230" cy="168" r="12" fill="#EF4444" opacity="0.8"/>
  <!-- Bottom roll -->
  <path d="M60 178 Q200 198 340 178" fill="#D97706"/>
  <path d="M60 175 Q200 193 340 175" fill="#F59E0B"/>
  <text x="200" y="265" font-family="Arial, sans-serif" font-size="18" fill="#92400E" font-weight="700" text-anchor="middle">Turkey &amp; Roast Beef Hero</text>
</svg>
