<svg xmlns="http://www.w3.org/2000/svg" viewBox="0 0 1290 2796" width="1290" height="2796">
  <defs>
    <filter id="shadow1" x="-5%" y="-5%" width="115%" height="115%">
      <feDropShadow dx="0" dy="4" stdDeviation="12" flood-color="#000" flood-opacity="0.08"/>
    </filter>
    <filter id="shadow2" x="-5%" y="-5%" width="115%" height="115%">
      <feDropShadow dx="0" dy="2" stdDeviation="6" flood-color="#000" flood-opacity="0.06"/>
    </filter>
    <clipPath id="screenClip">
      <rect x="0" y="0" width="1290" height="2796" rx="60"/>
    </clipPath>
  </defs>

  <!-- Background -->
  <rect width="1290" height="2796" rx="60" fill="#f9fafb" clip-path="url(#screenClip)"/>

  <!-- Status Bar -->
  <rect x="0" y="0" width="1290" height="110" fill="white"/>
  <text x="80" y="72" font-family="SF Pro Display, -apple-system, Helvetica" font-size="36" fill="#111827" font-weight="600">9:41</text>
  <rect x="1020" y="42" width="8" height="16" rx="2" fill="#c4c4c4"/>
  <rect x="1034" y="38" width="8" height="20" rx="2" fill="#a3a3a3"/>
  <rect x="1048" y="34" width="8" height="24" rx="2" fill="#737373"/>
  <rect x="1062" y="30" width="8" height="28" rx="2" fill="#111827"/>
  <rect x="1150" y="34" width="50" height="24" rx="6" stroke="#111827" stroke-width="2.5" fill="none"/>
  <rect x="1200" y="41" width="4" height="10" rx="2" fill="#111827"/>
  <rect x="1154" y="38" width="40" height="16" rx="3" fill="#111827"/>

  <!-- Header -->
  <rect x="0" y="110" width="1290" height="250" fill="white"/>
  <line x1="0" y1="360" x2="1290" y2="360" stroke="#e5e7eb" stroke-width="2"/>
  <text x="80" y="195" font-family="SF Pro Display, -apple-system, Helvetica" font-size="52" fill="#111827" font-weight="800">Browse Stores</text>

  <!-- Search Bar -->
  <rect x="60" y="225" width="940" height="90" rx="16" fill="#f3f4f6" stroke="#e5e7eb" stroke-width="2"/>
  <circle cx="120" cy="270" r="18" stroke="#9ca3af" stroke-width="3" fill="none"/>
  <line x1="133" y1="283" x2="143" y2="293" stroke="#9ca3af" stroke-width="3" stroke-linecap="round"/>
  <text x="160" y="280" font-family="SF Pro Display, -apple-system, Helvetica" font-size="32" fill="#9ca3af">Search stores by name...</text>

  <!-- Filter button -->
  <rect x="1030" y="225" width="200" height="90" rx="16" fill="white" stroke="#e5e7eb" stroke-width="2"/>
  <line x1="1090" y1="255" x2="1130" y2="255" stroke="#374151" stroke-width="3" stroke-linecap="round"/>
  <line x1="1090" y1="270" x2="1130" y2="270" stroke="#374151" stroke-width="3" stroke-linecap="round"/>
  <line x1="1090" y1="285" x2="1130" y2="285" stroke="#374151" stroke-width="3" stroke-linecap="round"/>
  <circle cx="1115" cy="255" r="5" fill="#16a34a"/>
  <circle cx="1105" cy="270" r="5" fill="#16a34a"/>
  <circle cx="1120" cy="285" r="5" fill="#16a34a"/>
  <text x="1142" y="278" font-family="SF Pro Display, -apple-system, Helvetica" font-size="28" fill="#374151" font-weight="600">Filters</text>

  <!-- Results count -->
  <text x="80" y="420" font-family="SF Pro Display, -apple-system, Helvetica" font-size="28" fill="#6b7280">Showing 3 of 3 stores</text>

  <!-- Store Card 1: Maria's Corner Mart -->
  <rect x="60" y="460" width="1170" height="380" rx="28" fill="white" filter="url(#shadow1)"/>
  <!-- Image area -->
  <rect x="60" y="460" width="1170" height="190" rx="28" fill="#dcfce7"/>
  <rect x="60" y="590" width="1170" height="60" fill="#dcfce7"/>
  <!-- Store icon -->
  <rect x="530" y="510" width="110" height="90" rx="10" fill="#86efac" stroke="#22c55e" stroke-width="3"/>
  <rect x="510" y="498" width="150" height="18" rx="5" fill="#22c55e"/>
  <rect x="555" y="545" width="25" height="38" rx="4" fill="#16a34a"/>
  <rect x="590" y="545" width="25" height="38" rx="4" fill="#16a34a"/>
  <!-- Open badge -->
  <rect x="1020" y="485" width="140" height="48" rx="24" fill="rgba(220,252,231,0.9)"/>
  <circle cx="1052" cy="509" r="8" fill="#22c55e"/>
  <text x="1070" y="519" font-family="SF Pro Display, -apple-system, Helvetica" font-size="26" fill="#15803d" font-weight="600">Open</text>
  <!-- Info -->
  <text x="100" y="700" font-family="SF Pro Display, -apple-system, Helvetica" font-size="40" fill="#111827" font-weight="700">Maria's Corner Mart</text>
  <!-- Stars -->
  <g transform="translate(100, 720)">
    <polygon points="14,0 17,10 28,10 20,16 22,26 14,21 6,26 8,16 0,10 11,10" fill="#facc15"/>
    <polygon points="44,0 47,10 58,10 50,16 52,26 44,21 36,26 38,16 30,10 41,10" fill="#facc15"/>
    <polygon points="74,0 77,10 88,10 80,16 82,26 74,21 66,26 68,16 60,10 71,10" fill="#facc15"/>
    <polygon points="104,0 107,10 118,10 110,16 112,26 104,21 96,26 98,16 90,10 101,10" fill="#facc15"/>
    <polygon points="134,2 136,10 146,10 139,15 141,24 134,19 127,24 129,15 122,10 132,10" fill="#facc15"/>
    <text x="158" y="22" font-family="SF Pro Display, -apple-system, Helvetica" font-size="30" fill="#6b7280" font-weight="500">4.5 (3 reviews)</text>
  </g>
  <!-- Address -->
  <g transform="translate(100, 780)">
    <path d="M10 2 C5 2 1 6 1 10.5 C1 18 10 24 10 24 C10 24 19 18 19 10.5 C19 6 15 2 10 2Z" fill="#9ca3af"/>
    <circle cx="10" cy="10.5" r="4" fill="white"/>
    <text x="30" y="20" font-family="SF Pro Display, -apple-system, Helvetica" font-size="28" fill="#6b7280">123 Main Street, Brooklyn, NY 11201</text>
  </g>
  <!-- Products count badge -->
  <rect x="980" y="770" width="190" height="50" rx="25" fill="#f0fdf4" stroke="#bbf7d0" stroke-width="2"/>
  <text x="1010" y="803" font-family="SF Pro Display, -apple-system, Helvetica" font-size="26" fill="#16a34a" font-weight="600">7 Products</text>

  <!-- Store Card 2: Quick Stop Convenience -->
  <rect x="60" y="870" width="1170" height="380" rx="28" fill="white" filter="url(#shadow1)"/>
  <rect x="60" y="870" width="1170" height="190" rx="28" fill="#dbeafe"/>
  <rect x="60" y="1000" width="1170" height="60" fill="#dbeafe"/>
  <!-- Store icon -->
  <rect x="530" y="920" width="110" height="90" rx="10" fill="#93c5fd" stroke="#3b82f6" stroke-width="3"/>
  <rect x="510" y="908" width="150" height="18" rx="5" fill="#3b82f6"/>
  <rect x="555" y="955" width="25" height="38" rx="4" fill="#2563eb"/>
  <rect x="590" y="955" width="25" height="38" rx="4" fill="#2563eb"/>
  <!-- Open badge -->
  <rect x="1020" y="895" width="140" height="48" rx="24" fill="rgba(219,234,254,0.9)"/>
  <circle cx="1052" cy="919" r="8" fill="#22c55e"/>
  <text x="1070" y="929" font-family="SF Pro Display, -apple-system, Helvetica" font-size="26" fill="#15803d" font-weight="600">Open</text>
  <text x="100" y="1110" font-family="SF Pro Display, -apple-system, Helvetica" font-size="40" fill="#111827" font-weight="700">Quick Stop Convenience</text>
  <g transform="translate(100, 1130)">
    <polygon points="14,0 17,10 28,10 20,16 22,26 14,21 6,26 8,16 0,10 11,10" fill="#facc15"/>
    <polygon points="44,0 47,10 58,10 50,16 52,26 44,21 36,26 38,16 30,10 41,10" fill="#facc15"/>
    <polygon points="74,0 77,10 88,10 80,16 82,26 74,21 66,26 68,16 60,10 71,10" fill="#facc15"/>
    <polygon points="104,0 107,10 118,10 110,16 112,26 104,21 96,26 98,16 90,10 101,10" fill="#facc15"/>
    <polygon points="134,4 136,10 144,10 138,14 140,22 134,18 128,22 130,14 124,10 132,10" fill="#e5e7eb"/>
    <text x="158" y="22" font-family="SF Pro Display, -apple-system, Helvetica" font-size="30" fill="#6b7280" font-weight="500">4.2 (2 reviews)</text>
  </g>
  <g transform="translate(100, 1190)">
    <path d="M10 2 C5 2 1 6 1 10.5 C1 18 10 24 10 24 C10 24 19 18 19 10.5 C19 6 15 2 10 2Z" fill="#9ca3af"/>
    <circle cx="10" cy="10.5" r="4" fill="white"/>
    <text x="30" y="20" font-family="SF Pro Display, -apple-system, Helvetica" font-size="28" fill="#6b7280">456 Oak Avenue, Brooklyn, NY 11215</text>
  </g>
  <rect x="980" y="1180" width="190" height="50" rx="25" fill="#f0fdf4" stroke="#bbf7d0" stroke-width="2"/>
  <text x="1010" y="1213" font-family="SF Pro Display, -apple-system, Helvetica" font-size="26" fill="#16a34a" font-weight="600">6 Products</text>

  <!-- Store Card 3: Fresh Corner Market -->
  <rect x="60" y="1280" width="1170" height="380" rx="28" fill="white" filter="url(#shadow1)"/>
  <rect x="60" y="1280" width="1170" height="190" rx="28" fill="#fef3c7"/>
  <rect x="60" y="1410" width="1170" height="60" fill="#fef3c7"/>
  <!-- Produce icon -->
  <circle cx="645" cy="1380" r="50" fill="#fbbf24"/>
  <ellipse cx="630" cy="1385" rx="32" ry="28" fill="#22c55e"/>
  <ellipse cx="660" cy="1385" rx="32" ry="28" fill="#16a34a"/>
  <!-- Open badge -->
  <rect x="1020" y="1305" width="140" height="48" rx="24" fill="rgba(254,243,199,0.9)"/>
  <circle cx="1052" cy="1329" r="8" fill="#22c55e"/>
  <text x="1070" y="1339" font-family="SF Pro Display, -apple-system, Helvetica" font-size="26" fill="#15803d" font-weight="600">Open</text>
  <text x="100" y="1520" font-family="SF Pro Display, -apple-system, Helvetica" font-size="40" fill="#111827" font-weight="700">Fresh Corner Market</text>
  <g transform="translate(100, 1540)">
    <polygon points="14,0 17,10 28,10 20,16 22,26 14,21 6,26 8,16 0,10 11,10" fill="#facc15"/>
    <polygon points="44,0 47,10 58,10 50,16 52,26 44,21 36,26 38,16 30,10 41,10" fill="#facc15"/>
    <polygon points="74,0 77,10 88,10 80,16 82,26 74,21 66,26 68,16 60,10 71,10" fill="#facc15"/>
    <polygon points="104,0 107,10 118,10 110,16 112,26 104,21 96,26 98,16 90,10 101,10" fill="#facc15"/>
    <polygon points="134,0 137,10 148,10 140,16 142,26 134,21 126,26 128,16 120,10 131,10" fill="#facc15"/>
    <text x="158" y="22" font-family="SF Pro Display, -apple-system, Helvetica" font-size="30" fill="#6b7280" font-weight="500">4.8 (1 review)</text>
  </g>
  <g transform="translate(100, 1600)">
    <path d="M10 2 C5 2 1 6 1 10.5 C1 18 10 24 10 24 C10 24 19 18 19 10.5 C19 6 15 2 10 2Z" fill="#9ca3af"/>
    <circle cx="10" cy="10.5" r="4" fill="white"/>
    <text x="30" y="20" font-family="SF Pro Display, -apple-system, Helvetica" font-size="28" fill="#6b7280">789 Elm Boulevard, Brooklyn, NY 11217</text>
  </g>
  <rect x="980" y="1590" width="190" height="50" rx="25" fill="#f0fdf4" stroke="#bbf7d0" stroke-width="2"/>
  <text x="1010" y="1623" font-family="SF Pro Display, -apple-system, Helvetica" font-size="26" fill="#16a34a" font-weight="600">7 Products</text>

  <!-- Bottom Navigation Bar -->
  <rect x="0" y="2596" width="1290" height="200" fill="white"/>
  <line x1="0" y1="2596" x2="1290" y2="2596" stroke="#e5e7eb" stroke-width="2"/>

  <!-- Home -->
  <g transform="translate(130, 2625)">
    <path d="M24 4 L4 20 L8 20 L8 36 L18 36 L18 26 L30 26 L30 36 L40 36 L40 20 L44 20 Z" fill="#9ca3af"/>
    <text x="5" y="60" font-family="SF Pro Display, -apple-system, Helvetica" font-size="24" fill="#9ca3af" font-weight="500">Home</text>
  </g>

  <!-- Stores (active) -->
  <g transform="translate(370, 2625)">
    <rect x="6" y="10" width="36" height="26" rx="4" stroke="#16a34a" stroke-width="3.5" fill="none"/>
    <rect x="4" y="4" width="40" height="10" rx="3" stroke="#16a34a" stroke-width="3.5" fill="none"/>
    <line x1="20" y1="20" x2="20" y2="36" stroke="#16a34a" stroke-width="3"/>
    <text x="-2" y="60" font-family="SF Pro Display, -apple-system, Helvetica" font-size="24" fill="#16a34a" font-weight="600">Stores</text>
  </g>

  <!-- Orders -->
  <g transform="translate(600, 2625)">
    <rect x="6" y="4" width="32" height="36" rx="4" stroke="#9ca3af" stroke-width="3.5" fill="none"/>
    <line x1="14" y1="15" x2="32" y2="15" stroke="#9ca3af" stroke-width="3"/>
    <line x1="14" y1="24" x2="28" y2="24" stroke="#9ca3af" stroke-width="3"/>
    <line x1="14" y1="33" x2="24" y2="33" stroke="#9ca3af" stroke-width="3"/>
    <text x="-4" y="60" font-family="SF Pro Display, -apple-system, Helvetica" font-size="24" fill="#9ca3af" font-weight="500">Orders</text>
  </g>

  <!-- Cart -->
  <g transform="translate(830, 2625)">
    <path d="M8 8 L14 8 L22 32 L38 32" stroke="#9ca3af" stroke-width="3.5" fill="none" stroke-linecap="round"/>
    <circle cx="24" cy="40" r="4" fill="#9ca3af"/>
    <circle cx="36" cy="40" r="4" fill="#9ca3af"/>
    <text x="5" y="60" font-family="SF Pro Display, -apple-system, Helvetica" font-size="24" fill="#9ca3af" font-weight="500">Cart</text>
  </g>

  <!-- Profile -->
  <g transform="translate(1060, 2625)">
    <circle cx="22" cy="14" r="10" stroke="#9ca3af" stroke-width="3.5" fill="none"/>
    <path d="M4 40 C4 30 14 24 22 24 C30 24 40 30 40 40" stroke="#9ca3af" stroke-width="3.5" fill="none" stroke-linecap="round"/>
    <text x="-2" y="60" font-family="SF Pro Display, -apple-system, Helvetica" font-size="24" fill="#9ca3af" font-weight="500">Profile</text>
  </g>

  <rect x="495" y="2746" width="300" height="10" rx="5" fill="#d1d5db"/>
</svg>
