<svg xmlns="http://www.w3.org/2000/svg" viewBox="0 0 1290 2796" width="1290" height="2796">
  <defs>
    <filter id="shadow1" x="-5%" y="-5%" width="115%" height="115%">
      <feDropShadow dx="0" dy="4" stdDeviation="12" flood-color="#000" flood-opacity="0.08"/>
    </filter>
    <filter id="shadow2" x="-5%" y="-5%" width="115%" height="115%">
      <feDropShadow dx="0" dy="2" stdDeviation="6" flood-color="#000" flood-opacity="0.06"/>
    </filter>
    <clipPath id="screenClip">
      <rect x="0" y="0" width="1290" height="2796" rx="60"/>
    </clipPath>
  </defs>

  <rect width="1290" height="2796" rx="60" fill="#f9fafb" clip-path="url(#screenClip)"/>

  <!-- Status Bar -->
  <rect x="0" y="0" width="1290" height="110" fill="#16a34a"/>
  <text x="80" y="72" font-family="SF Pro Display, -apple-system, Helvetica" font-size="36" fill="white" font-weight="600">9:41</text>
  <rect x="1150" y="34" width="50" height="24" rx="6" stroke="white" stroke-width="2.5" fill="none"/>
  <rect x="1200" y="41" width="4" height="10" rx="2" fill="white"/>
  <rect x="1154" y="38" width="40" height="16" rx="3" fill="white"/>

  <!-- Store Hero Banner -->
  <rect x="0" y="110" width="1290" height="400" fill="#dcfce7"/>
  <!-- Back button -->
  <circle cx="100" cy="175" r="35" fill="rgba(255,255,255,0.9)"/>
  <path d="M110 160 L90 175 L110 190" stroke="#111827" stroke-width="4" fill="none" stroke-linecap="round" stroke-linejoin="round"/>
  <!-- Heart button -->
  <circle cx="1190" cy="175" r="35" fill="rgba(255,255,255,0.9)"/>
  <path d="M1175 172 C1175 165 1182 162 1190 170 C1198 162 1205 165 1205 172 C1205 182 1190 190 1190 190 C1190 190 1175 182 1175 172Z" stroke="#ef4444" stroke-width="3" fill="none"/>
  <!-- Store illustration -->
  <rect x="510" y="210" width="160" height="130" rx="14" fill="#86efac" stroke="#22c55e" stroke-width="4"/>
  <rect x="485" y="195" width="210" height="22" rx="6" fill="#22c55e"/>
  <rect x="555" y="255" width="35" height="55" rx="5" fill="#16a34a"/>
  <rect x="600" y="255" width="35" height="55" rx="5" fill="#16a34a"/>
  <!-- Awning stripes -->
  <rect x="485" y="195" width="30" height="22" rx="6" fill="#15803d"/>
  <rect x="545" y="195" width="30" height="22" rx="6" fill="#15803d"/>
  <rect x="605" y="195" width="30" height="22" rx="6" fill="#15803d"/>
  <rect x="665" y="195" width="30" height="22" rx="6" fill="#15803d"/>

  <!-- Open badge on banner -->
  <rect x="560" y="380" width="170" height="52" rx="26" fill="white" filter="url(#shadow2)"/>
  <circle cx="596" cy="406" r="9" fill="#22c55e"/>
  <text x="616" y="416" font-family="SF Pro Display, -apple-system, Helvetica" font-size="28" fill="#15803d" font-weight="600">Open Now</text>

  <!-- Store Info Section -->
  <rect x="0" y="510" width="1290" height="340" fill="white"/>

  <text x="80" y="585" font-family="SF Pro Display, -apple-system, Helvetica" font-size="50" fill="#111827" font-weight="800">Maria's Corner Mart</text>

  <!-- Rating -->
  <g transform="translate(80, 610)">
    <polygon points="16,0 20,12 32,12 22,18 26,30 16,24 6,30 10,18 0,12 12,12" fill="#facc15"/>
    <polygon points="50,0 54,12 66,12 56,18 60,30 50,24 40,30 44,18 34,12 46,12" fill="#facc15"/>
    <polygon points="84,0 88,12 100,12 90,18 94,30 84,24 74,30 78,18 68,12 80,12" fill="#facc15"/>
    <polygon points="118,0 122,12 134,12 124,18 128,30 118,24 108,30 112,18 102,12 114,12" fill="#facc15"/>
    <polygon points="152,2 155,12 166,12 157,17 160,28 152,22 144,28 147,17 138,12 149,12" fill="#facc15"/>
    <text x="178" y="24" font-family="SF Pro Display, -apple-system, Helvetica" font-size="32" fill="#111827" font-weight="700">4.5</text>
    <text x="230" y="24" font-family="SF Pro Display, -apple-system, Helvetica" font-size="32" fill="#6b7280">(3 reviews)</text>
  </g>

  <text x="80" y="695" font-family="SF Pro Display, -apple-system, Helvetica" font-size="30" fill="#6b7280" font-weight="400">A family-owned corner store serving the</text>
  <text x="80" y="735" font-family="SF Pro Display, -apple-system, Helvetica" font-size="30" fill="#6b7280" font-weight="400">neighborhood for over 15 years.</text>

  <!-- Info chips -->
  <g transform="translate(80, 770)">
    <!-- Address chip -->
    <rect x="0" y="0" width="440" height="55" rx="27" fill="#f3f4f6"/>
    <path d="M25 12 C19 12 14 17 14 22 C14 31 25 38 25 38 C25 38 36 31 36 22 C36 17 31 12 25 12Z" fill="#16a34a"/>
    <circle cx="25" cy="22" r="4" fill="white"/>
    <text x="46" y="36" font-family="SF Pro Display, -apple-system, Helvetica" font-size="26" fill="#374151">123 Main St, Brooklyn, NY</text>
    <!-- Phone chip -->
    <rect x="460" y="0" width="340" height="55" rx="27" fill="#f3f4f6"/>
    <rect x="482" y="12" width="20" height="30" rx="4" stroke="#16a34a" stroke-width="2.5" fill="none"/>
    <line x1="487" y1="35" x2="497" y2="35" stroke="#16a34a" stroke-width="2"/>
    <text x="512" y="36" font-family="SF Pro Display, -apple-system, Helvetica" font-size="26" fill="#374151">555-300-0001</text>
  </g>

  <line x1="60" y1="850" x2="1230" y2="850" stroke="#e5e7eb" stroke-width="2"/>

  <!-- Products Section -->
  <text x="80" y="920" font-family="SF Pro Display, -apple-system, Helvetica" font-size="42" fill="#111827" font-weight="700">Products</text>
  <text x="80" y="960" font-family="SF Pro Display, -apple-system, Helvetica" font-size="28" fill="#6b7280">7 items available</text>

  <!-- Category tabs -->
  <rect x="80" y="990" width="120" height="52" rx="26" fill="#16a34a"/>
  <text x="116" y="1023" font-family="SF Pro Display, -apple-system, Helvetica" font-size="26" fill="white" font-weight="600">All</text>
  <rect x="220" y="990" width="170" height="52" rx="26" fill="#f3f4f6"/>
  <text x="256" y="1023" font-family="SF Pro Display, -apple-system, Helvetica" font-size="26" fill="#374151" font-weight="500">Snacks</text>
  <rect x="410" y="990" width="220" height="52" rx="26" fill="#f3f4f6"/>
  <text x="446" y="1023" font-family="SF Pro Display, -apple-system, Helvetica" font-size="26" fill="#374151" font-weight="500">Beverages</text>
  <rect x="650" y="990" width="160" height="52" rx="26" fill="#f3f4f6"/>
  <text x="686" y="1023" font-family="SF Pro Display, -apple-system, Helvetica" font-size="26" fill="#374151" font-weight="500">Dairy</text>
  <rect x="830" y="990" width="210" height="52" rx="26" fill="#f3f4f6"/>
  <text x="866" y="1023" font-family="SF Pro Display, -apple-system, Helvetica" font-size="26" fill="#374151" font-weight="500">Produce</text>

  <!-- Product 1: Classic Potato Chips -->
  <rect x="60" y="1080" width="1170" height="190" rx="20" fill="white" filter="url(#shadow2)"/>
  <rect x="80" y="1100" width="150" height="150" rx="16" fill="#fef3c7"/>
  <text x="120" y="1200" font-family="SF Pro Display, -apple-system, Helvetica" font-size="64">🍟</text>
  <text x="260" y="1155" font-family="SF Pro Display, -apple-system, Helvetica" font-size="34" fill="#111827" font-weight="600">Classic Potato Chips</text>
  <text x="260" y="1195" font-family="SF Pro Display, -apple-system, Helvetica" font-size="26" fill="#6b7280">Crispy salted potato chips, family size</text>
  <text x="260" y="1240" font-family="SF Pro Display, -apple-system, Helvetica" font-size="36" fill="#16a34a" font-weight="700">$4.99</text>
  <text x="370" y="1240" font-family="SF Pro Display, -apple-system, Helvetica" font-size="28" fill="#9ca3af" text-decoration="line-through">$5.99</text>
  <!-- Sale badge -->
  <rect x="480" y="1218" width="90" height="34" rx="17" fill="#fef2f2"/>
  <text x="497" y="1242" font-family="SF Pro Display, -apple-system, Helvetica" font-size="22" fill="#dc2626" font-weight="600">SALE</text>
  <!-- Add button -->
  <rect x="1100" y="1145" width="90" height="90" rx="20" fill="#16a34a"/>
  <line x1="1130" y1="1190" x2="1160" y2="1190" stroke="white" stroke-width="4" stroke-linecap="round"/>
  <line x1="1145" y1="1175" x2="1145" y2="1205" stroke="white" stroke-width="4" stroke-linecap="round"/>

  <!-- Product 2: Chocolate Chip Cookies -->
  <rect x="60" y="1290" width="1170" height="190" rx="20" fill="white" filter="url(#shadow2)"/>
  <rect x="80" y="1310" width="150" height="150" rx="16" fill="#fce7f3"/>
  <text x="120" y="1410" font-family="SF Pro Display, -apple-system, Helvetica" font-size="64">🍪</text>
  <text x="260" y="1365" font-family="SF Pro Display, -apple-system, Helvetica" font-size="34" fill="#111827" font-weight="600">Chocolate Chip Cookies</text>
  <text x="260" y="1405" font-family="SF Pro Display, -apple-system, Helvetica" font-size="26" fill="#6b7280">Homestyle cookies, 12-pack</text>
  <text x="260" y="1450" font-family="SF Pro Display, -apple-system, Helvetica" font-size="36" fill="#16a34a" font-weight="700">$5.49</text>
  <rect x="1100" y="1355" width="90" height="90" rx="20" fill="#16a34a"/>
  <line x1="1130" y1="1400" x2="1160" y2="1400" stroke="white" stroke-width="4" stroke-linecap="round"/>
  <line x1="1145" y1="1385" x2="1145" y2="1415" stroke="white" stroke-width="4" stroke-linecap="round"/>

  <!-- Product 3: Orange Juice -->
  <rect x="60" y="1500" width="1170" height="190" rx="20" fill="white" filter="url(#shadow2)"/>
  <rect x="80" y="1520" width="150" height="150" rx="16" fill="#fed7aa"/>
  <text x="120" y="1620" font-family="SF Pro Display, -apple-system, Helvetica" font-size="64">🧃</text>
  <text x="260" y="1575" font-family="SF Pro Display, -apple-system, Helvetica" font-size="34" fill="#111827" font-weight="600">Orange Juice</text>
  <text x="260" y="1615" font-family="SF Pro Display, -apple-system, Helvetica" font-size="26" fill="#6b7280">Fresh-squeezed, 32oz</text>
  <text x="260" y="1660" font-family="SF Pro Display, -apple-system, Helvetica" font-size="36" fill="#16a34a" font-weight="700">$6.99</text>
  <rect x="1100" y="1565" width="90" height="90" rx="20" fill="#16a34a"/>
  <line x1="1130" y1="1610" x2="1160" y2="1610" stroke="white" stroke-width="4" stroke-linecap="round"/>
  <line x1="1145" y1="1595" x2="1145" y2="1625" stroke="white" stroke-width="4" stroke-linecap="round"/>

  <!-- Product 4: Whole Milk -->
  <rect x="60" y="1710" width="1170" height="190" rx="20" fill="white" filter="url(#shadow2)"/>
  <rect x="80" y="1730" width="150" height="150" rx="16" fill="#e0e7ff"/>
  <text x="120" y="1830" font-family="SF Pro Display, -apple-system, Helvetica" font-size="64">🥛</text>
  <text x="260" y="1785" font-family="SF Pro Display, -apple-system, Helvetica" font-size="34" fill="#111827" font-weight="600">Whole Milk</text>
  <text x="260" y="1825" font-family="SF Pro Display, -apple-system, Helvetica" font-size="26" fill="#6b7280">Farm-fresh, 1 gallon</text>
  <text x="260" y="1870" font-family="SF Pro Display, -apple-system, Helvetica" font-size="36" fill="#16a34a" font-weight="700">$4.49</text>
  <rect x="1100" y="1775" width="90" height="90" rx="20" fill="#16a34a"/>
  <line x1="1130" y1="1820" x2="1160" y2="1820" stroke="white" stroke-width="4" stroke-linecap="round"/>
  <line x1="1145" y1="1805" x2="1145" y2="1835" stroke="white" stroke-width="4" stroke-linecap="round"/>

  <!-- Product 5: Organic Bananas -->
  <rect x="60" y="1920" width="1170" height="190" rx="20" fill="white" filter="url(#shadow2)"/>
  <rect x="80" y="1940" width="150" height="150" rx="16" fill="#fef9c3"/>
  <text x="120" y="2040" font-family="SF Pro Display, -apple-system, Helvetica" font-size="64">🍌</text>
  <text x="260" y="1995" font-family="SF Pro Display, -apple-system, Helvetica" font-size="34" fill="#111827" font-weight="600">Organic Bananas</text>
  <text x="260" y="2035" font-family="SF Pro Display, -apple-system, Helvetica" font-size="26" fill="#6b7280">Bunch of 6 organic bananas</text>
  <text x="260" y="2080" font-family="SF Pro Display, -apple-system, Helvetica" font-size="36" fill="#16a34a" font-weight="700">$2.99</text>
  <rect x="1100" y="1985" width="90" height="90" rx="20" fill="#16a34a"/>
  <line x1="1130" y1="2030" x2="1160" y2="2030" stroke="white" stroke-width="4" stroke-linecap="round"/>
  <line x1="1145" y1="2015" x2="1145" y2="2045" stroke="white" stroke-width="4" stroke-linecap="round"/>

  <!-- Bottom Navigation -->
  <rect x="0" y="2596" width="1290" height="200" fill="white"/>
  <line x1="0" y1="2596" x2="1290" y2="2596" stroke="#e5e7eb" stroke-width="2"/>
  <g transform="translate(130, 2625)">
    <path d="M24 4 L4 20 L8 20 L8 36 L18 36 L18 26 L30 26 L30 36 L40 36 L40 20 L44 20 Z" fill="#9ca3af"/>
    <text x="5" y="60" font-family="SF Pro Display, -apple-system, Helvetica" font-size="24" fill="#9ca3af" font-weight="500">Home</text>
  </g>
  <g transform="translate(370, 2625)">
    <rect x="6" y="10" width="36" height="26" rx="4" stroke="#16a34a" stroke-width="3.5" fill="none"/>
    <rect x="4" y="4" width="40" height="10" rx="3" stroke="#16a34a" stroke-width="3.5" fill="none"/>
    <line x1="20" y1="20" x2="20" y2="36" stroke="#16a34a" stroke-width="3"/>
    <text x="-2" y="60" font-family="SF Pro Display, -apple-system, Helvetica" font-size="24" fill="#16a34a" font-weight="600">Stores</text>
  </g>
  <g transform="translate(600, 2625)">
    <rect x="6" y="4" width="32" height="36" rx="4" stroke="#9ca3af" stroke-width="3.5" fill="none"/>
    <line x1="14" y1="15" x2="32" y2="15" stroke="#9ca3af" stroke-width="3"/>
    <line x1="14" y1="24" x2="28" y2="24" stroke="#9ca3af" stroke-width="3"/>
    <text x="-4" y="60" font-family="SF Pro Display, -apple-system, Helvetica" font-size="24" fill="#9ca3af" font-weight="500">Orders</text>
  </g>
  <g transform="translate(830, 2625)">
    <path d="M8 8 L14 8 L22 32 L38 32" stroke="#9ca3af" stroke-width="3.5" fill="none" stroke-linecap="round"/>
    <circle cx="24" cy="40" r="4" fill="#9ca3af"/>
    <circle cx="36" cy="40" r="4" fill="#9ca3af"/>
    <text x="5" y="60" font-family="SF Pro Display, -apple-system, Helvetica" font-size="24" fill="#9ca3af" font-weight="500">Cart</text>
  </g>
  <g transform="translate(1060, 2625)">
    <circle cx="22" cy="14" r="10" stroke="#9ca3af" stroke-width="3.5" fill="none"/>
    <path d="M4 40 C4 30 14 24 22 24 C30 24 40 30 40 40" stroke="#9ca3af" stroke-width="3.5" fill="none" stroke-linecap="round"/>
    <text x="-2" y="60" font-family="SF Pro Display, -apple-system, Helvetica" font-size="24" fill="#9ca3af" font-weight="500">Profile</text>
  </g>

  <rect x="495" y="2746" width="300" height="10" rx="5" fill="#d1d5db"/>
</svg>
