<svg xmlns="http://www.w3.org/2000/svg" viewBox="0 0 1290 2796" width="1290" height="2796">
  <defs>
    <linearGradient id="btnGrad" x1="0" y1="0" x2="1" y2="0">
      <stop offset="0%" stop-color="#16a34a"/>
      <stop offset="100%" stop-color="#15803d"/>
    </linearGradient>
    <filter id="shadow1" x="-5%" y="-5%" width="115%" height="115%">
      <feDropShadow dx="0" dy="4" stdDeviation="12" flood-color="#000" flood-opacity="0.08"/>
    </filter>
    <filter id="shadow2" x="-5%" y="-5%" width="115%" height="115%">
      <feDropShadow dx="0" dy="2" stdDeviation="6" flood-color="#000" flood-opacity="0.06"/>
    </filter>
    <clipPath id="screenClip">
      <rect x="0" y="0" width="1290" height="2796" rx="60"/>
    </clipPath>
  </defs>

  <rect width="1290" height="2796" rx="60" fill="#f9fafb" clip-path="url(#screenClip)"/>

  <!-- Status Bar -->
  <rect x="0" y="0" width="1290" height="110" fill="white"/>
  <text x="80" y="72" font-family="SF Pro Display, -apple-system, Helvetica" font-size="36" fill="#111827" font-weight="600">9:41</text>
  <rect x="1150" y="34" width="50" height="24" rx="6" stroke="#111827" stroke-width="2.5" fill="none"/>
  <rect x="1200" y="41" width="4" height="10" rx="2" fill="#111827"/>
  <rect x="1154" y="38" width="40" height="16" rx="3" fill="#111827"/>

  <!-- Header -->
  <rect x="0" y="110" width="1290" height="130" fill="white"/>
  <line x1="0" y1="240" x2="1290" y2="240" stroke="#e5e7eb" stroke-width="2"/>
  <!-- Back arrow -->
  <path d="M100 160 L75 180 L100 200" stroke="#111827" stroke-width="4" fill="none" stroke-linecap="round" stroke-linejoin="round"/>
  <text x="530" y="188" font-family="SF Pro Display, -apple-system, Helvetica" font-size="40" fill="#111827" font-weight="700">My Cart</text>
  <!-- Item count badge -->
  <rect x="710" y="160" width="60" height="40" rx="20" fill="#16a34a"/>
  <text x="731" y="188" font-family="SF Pro Display, -apple-system, Helvetica" font-size="26" fill="white" font-weight="700" text-anchor="middle">3</text>

  <!-- Store name banner -->
  <rect x="60" y="270" width="1170" height="80" rx="16" fill="#f0fdf4" stroke="#bbf7d0" stroke-width="2"/>
  <rect x="85" y="288" width="44" height="44" rx="10" fill="#dcfce7"/>
  <rect x="94" y="296" width="26" height="20" rx="4" fill="#22c55e"/>
  <rect x="90" y="292" width="34" height="6" rx="2" fill="#16a34a"/>
  <text x="150" y="320" font-family="SF Pro Display, -apple-system, Helvetica" font-size="30" fill="#15803d" font-weight="600">Maria's Corner Mart</text>

  <!-- Cart Item 1: Classic Potato Chips x2 -->
  <rect x="60" y="380" width="1170" height="210" rx="24" fill="white" filter="url(#shadow2)"/>
  <rect x="85" y="405" width="160" height="160" rx="18" fill="#fef3c7"/>
  <text x="125" y="510" font-family="SF Pro Display, -apple-system, Helvetica" font-size="72">🍟</text>
  <text x="275" y="445" font-family="SF Pro Display, -apple-system, Helvetica" font-size="34" fill="#111827" font-weight="600">Classic Potato Chips</text>
  <text x="275" y="485" font-family="SF Pro Display, -apple-system, Helvetica" font-size="26" fill="#6b7280">Family size bag</text>
  <text x="275" y="545" font-family="SF Pro Display, -apple-system, Helvetica" font-size="36" fill="#16a34a" font-weight="700">$9.98</text>
  <!-- Quantity controls -->
  <rect x="900" y="510" width="200" height="60" rx="30" fill="#f3f4f6"/>
  <circle cx="940" cy="540" r="22" fill="white" stroke="#d1d5db" stroke-width="2"/>
  <line x1="930" y1="540" x2="950" y2="540" stroke="#374151" stroke-width="3" stroke-linecap="round"/>
  <text x="992" y="550" font-family="SF Pro Display, -apple-system, Helvetica" font-size="32" fill="#111827" font-weight="700" text-anchor="middle">2</text>
  <circle cx="1060" cy="540" r="22" fill="#16a34a"/>
  <line x1="1050" y1="540" x2="1070" y2="540" stroke="white" stroke-width="3" stroke-linecap="round"/>
  <line x1="1060" y1="530" x2="1060" y2="550" stroke="white" stroke-width="3" stroke-linecap="round"/>

  <!-- Cart Item 2: Orange Juice -->
  <rect x="60" y="610" width="1170" height="210" rx="24" fill="white" filter="url(#shadow2)"/>
  <rect x="85" y="635" width="160" height="160" rx="18" fill="#fed7aa"/>
  <text x="125" y="740" font-family="SF Pro Display, -apple-system, Helvetica" font-size="72">🧃</text>
  <text x="275" y="675" font-family="SF Pro Display, -apple-system, Helvetica" font-size="34" fill="#111827" font-weight="600">Orange Juice</text>
  <text x="275" y="715" font-family="SF Pro Display, -apple-system, Helvetica" font-size="26" fill="#6b7280">Fresh-squeezed, 32oz</text>
  <text x="275" y="775" font-family="SF Pro Display, -apple-system, Helvetica" font-size="36" fill="#16a34a" font-weight="700">$6.99</text>
  <rect x="900" y="740" width="200" height="60" rx="30" fill="#f3f4f6"/>
  <circle cx="940" cy="770" r="22" fill="white" stroke="#d1d5db" stroke-width="2"/>
  <line x1="930" y1="770" x2="950" y2="770" stroke="#374151" stroke-width="3" stroke-linecap="round"/>
  <text x="992" y="780" font-family="SF Pro Display, -apple-system, Helvetica" font-size="32" fill="#111827" font-weight="700" text-anchor="middle">1</text>
  <circle cx="1060" cy="770" r="22" fill="#16a34a"/>
  <line x1="1050" y1="770" x2="1070" y2="770" stroke="white" stroke-width="3" stroke-linecap="round"/>
  <line x1="1060" y1="760" x2="1060" y2="780" stroke="white" stroke-width="3" stroke-linecap="round"/>

  <!-- Pickup Time Section -->
  <rect x="60" y="860" width="1170" height="200" rx="24" fill="white" filter="url(#shadow2)"/>
  <text x="100" y="920" font-family="SF Pro Display, -apple-system, Helvetica" font-size="36" fill="#111827" font-weight="700">Pickup Time</text>
  <!-- Clock icon -->
  <circle cx="1120" cy="906" r="22" stroke="#16a34a" stroke-width="3" fill="none"/>
  <line x1="1120" y1="895" x2="1120" y2="906" stroke="#16a34a" stroke-width="3" stroke-linecap="round"/>
  <line x1="1120" y1="906" x2="1130" y2="912" stroke="#16a34a" stroke-width="3" stroke-linecap="round"/>

  <!-- Time slots -->
  <rect x="100" y="950" width="220" height="70" rx="16" fill="#16a34a"/>
  <text x="145" y="993" font-family="SF Pro Display, -apple-system, Helvetica" font-size="26" fill="white" font-weight="600">15 min</text>
  <rect x="340" y="950" width="220" height="70" rx="16" fill="#f3f4f6"/>
  <text x="388" y="993" font-family="SF Pro Display, -apple-system, Helvetica" font-size="26" fill="#374151" font-weight="500">30 min</text>
  <rect x="580" y="950" width="220" height="70" rx="16" fill="#f3f4f6"/>
  <text x="635" y="993" font-family="SF Pro Display, -apple-system, Helvetica" font-size="26" fill="#374151" font-weight="500">1 hour</text>
  <rect x="820" y="950" width="220" height="70" rx="16" fill="#f3f4f6"/>
  <text x="866" y="993" font-family="SF Pro Display, -apple-system, Helvetica" font-size="26" fill="#374151" font-weight="500">Custom</text>

  <!-- Order Notes -->
  <rect x="60" y="1100" width="1170" height="170" rx="24" fill="white" filter="url(#shadow2)"/>
  <text x="100" y="1160" font-family="SF Pro Display, -apple-system, Helvetica" font-size="36" fill="#111827" font-weight="700">Order Notes</text>
  <rect x="100" y="1180" width="1090" height="60" rx="12" fill="#f9fafb" stroke="#e5e7eb" stroke-width="2"/>
  <text x="130" y="1218" font-family="SF Pro Display, -apple-system, Helvetica" font-size="26" fill="#9ca3af">Add special instructions...</text>

  <!-- Promo Code -->
  <rect x="60" y="1310" width="1170" height="110" rx="24" fill="white" filter="url(#shadow2)"/>
  <rect x="100" y="1335" width="840" height="60" rx="12" fill="#f9fafb" stroke="#e5e7eb" stroke-width="2"/>
  <text x="130" y="1373" font-family="SF Pro Display, -apple-system, Helvetica" font-size="26" fill="#9ca3af">Enter promo code</text>
  <rect x="960" y="1335" width="210" height="60" rx="12" fill="#f0fdf4" stroke="#bbf7d0" stroke-width="2"/>
  <text x="1022" y="1373" font-family="SF Pro Display, -apple-system, Helvetica" font-size="26" fill="#16a34a" font-weight="600">Apply</text>

  <!-- Order Summary -->
  <rect x="60" y="1460" width="1170" height="380" rx="24" fill="white" filter="url(#shadow1)"/>
  <text x="100" y="1530" font-family="SF Pro Display, -apple-system, Helvetica" font-size="38" fill="#111827" font-weight="700">Order Summary</text>

  <text x="100" y="1590" font-family="SF Pro Display, -apple-system, Helvetica" font-size="30" fill="#6b7280">Subtotal (3 items)</text>
  <text x="1130" y="1590" font-family="SF Pro Display, -apple-system, Helvetica" font-size="30" fill="#111827" font-weight="600" text-anchor="end">$16.97</text>

  <text x="100" y="1640" font-family="SF Pro Display, -apple-system, Helvetica" font-size="30" fill="#6b7280">Tax</text>
  <text x="1130" y="1640" font-family="SF Pro Display, -apple-system, Helvetica" font-size="30" fill="#111827" font-weight="600" text-anchor="end">$1.51</text>

  <text x="100" y="1690" font-family="SF Pro Display, -apple-system, Helvetica" font-size="30" fill="#6b7280">Service Fee</text>
  <text x="1130" y="1690" font-family="SF Pro Display, -apple-system, Helvetica" font-size="30" fill="#111827" font-weight="600" text-anchor="end">$0.00</text>

  <line x1="100" y1="1720" x2="1130" y2="1720" stroke="#e5e7eb" stroke-width="2"/>

  <text x="100" y="1775" font-family="SF Pro Display, -apple-system, Helvetica" font-size="38" fill="#111827" font-weight="800">Total</text>
  <text x="1130" y="1775" font-family="SF Pro Display, -apple-system, Helvetica" font-size="38" fill="#16a34a" font-weight="800" text-anchor="end">$18.48</text>

  <!-- Payment Method -->
  <rect x="60" y="1880" width="1170" height="120" rx="24" fill="white" filter="url(#shadow2)"/>
  <rect x="100" y="1910" width="60" height="60" rx="12" fill="#e0e7ff"/>
  <text x="112" y="1952" font-family="SF Pro Display, -apple-system, Helvetica" font-size="32" fill="#4f46e5" font-weight="700">V</text>
  <text x="185" y="1940" font-family="SF Pro Display, -apple-system, Helvetica" font-size="30" fill="#111827" font-weight="600">Visa ending in 4242</text>
  <text x="185" y="1975" font-family="SF Pro Display, -apple-system, Helvetica" font-size="24" fill="#6b7280">Expires 12/28</text>
  <!-- Chevron right -->
  <path d="M1140 1950 L1160 1970 L1140 1990" stroke="#9ca3af" stroke-width="3" fill="none" stroke-linecap="round" stroke-linejoin="round"/>

  <!-- Place Order Button -->
  <rect x="60" y="2060" width="1170" height="110" rx="24" fill="url(#btnGrad)" filter="url(#shadow1)"/>
  <text x="645" y="2128" font-family="SF Pro Display, -apple-system, Helvetica" font-size="38" fill="white" font-weight="700" text-anchor="middle">Place Order - $18.48</text>

  <!-- Secure payment text -->
  <g transform="translate(480, 2195)">
    <!-- Lock icon -->
    <rect x="4" y="8" width="16" height="12" rx="3" fill="#9ca3af"/>
    <path d="M7 8 V5 C7 2 10 0 12 0 C14 0 17 2 17 5 V8" stroke="#9ca3af" stroke-width="2.5" fill="none"/>
    <text x="28" y="18" font-family="SF Pro Display, -apple-system, Helvetica" font-size="24" fill="#9ca3af">Secure payment powered by Stripe</text>
  </g>

  <!-- Bottom Navigation -->
  <rect x="0" y="2596" width="1290" height="200" fill="white"/>
  <line x1="0" y1="2596" x2="1290" y2="2596" stroke="#e5e7eb" stroke-width="2"/>
  <g transform="translate(130, 2625)">
    <path d="M24 4 L4 20 L8 20 L8 36 L18 36 L18 26 L30 26 L30 36 L40 36 L40 20 L44 20 Z" fill="#9ca3af"/>
    <text x="5" y="60" font-family="SF Pro Display, -apple-system, Helvetica" font-size="24" fill="#9ca3af" font-weight="500">Home</text>
  </g>
  <g transform="translate(370, 2625)">
    <rect x="6" y="10" width="36" height="26" rx="4" stroke="#9ca3af" stroke-width="3.5" fill="none"/>
    <rect x="4" y="4" width="40" height="10" rx="3" stroke="#9ca3af" stroke-width="3.5" fill="none"/>
    <text x="-2" y="60" font-family="SF Pro Display, -apple-system, Helvetica" font-size="24" fill="#9ca3af" font-weight="500">Stores</text>
  </g>
  <g transform="translate(600, 2625)">
    <rect x="6" y="4" width="32" height="36" rx="4" stroke="#9ca3af" stroke-width="3.5" fill="none"/>
    <line x1="14" y1="15" x2="32" y2="15" stroke="#9ca3af" stroke-width="3"/>
    <line x1="14" y1="24" x2="28" y2="24" stroke="#9ca3af" stroke-width="3"/>
    <text x="-4" y="60" font-family="SF Pro Display, -apple-system, Helvetica" font-size="24" fill="#9ca3af" font-weight="500">Orders</text>
  </g>
  <!-- Cart (active) -->
  <g transform="translate(830, 2625)">
    <path d="M8 8 L14 8 L22 32 L38 32" stroke="#16a34a" stroke-width="3.5" fill="none" stroke-linecap="round"/>
    <circle cx="24" cy="40" r="4" fill="#16a34a"/>
    <circle cx="36" cy="40" r="4" fill="#16a34a"/>
    <text x="5" y="60" font-family="SF Pro Display, -apple-system, Helvetica" font-size="24" fill="#16a34a" font-weight="600">Cart</text>
  </g>
  <g transform="translate(1060, 2625)">
    <circle cx="22" cy="14" r="10" stroke="#9ca3af" stroke-width="3.5" fill="none"/>
    <path d="M4 40 C4 30 14 24 22 24 C30 24 40 30 40 40" stroke="#9ca3af" stroke-width="3.5" fill="none" stroke-linecap="round"/>
    <text x="-2" y="60" font-family="SF Pro Display, -apple-system, Helvetica" font-size="24" fill="#9ca3af" font-weight="500">Profile</text>
  </g>

  <rect x="495" y="2746" width="300" height="10" rx="5" fill="#d1d5db"/>
</svg>
