<svg xmlns="http://www.w3.org/2000/svg" viewBox="0 0 1290 2796" width="1290" height="2796">
  <defs>
    <filter id="shadow1" x="-5%" y="-5%" width="115%" height="115%">
      <feDropShadow dx="0" dy="4" stdDeviation="12" flood-color="#000" flood-opacity="0.08"/>
    </filter>
    <filter id="shadow2" x="-5%" y="-5%" width="115%" height="115%">
      <feDropShadow dx="0" dy="2" stdDeviation="6" flood-color="#000" flood-opacity="0.06"/>
    </filter>
    <clipPath id="screenClip">
      <rect x="0" y="0" width="1290" height="2796" rx="60"/>
    </clipPath>
  </defs>

  <rect width="1290" height="2796" rx="60" fill="#f9fafb" clip-path="url(#screenClip)"/>

  <!-- Status Bar -->
  <rect x="0" y="0" width="1290" height="110" fill="white"/>
  <text x="80" y="72" font-family="SF Pro Display, -apple-system, Helvetica" font-size="36" fill="#111827" font-weight="600">9:41</text>
  <rect x="1150" y="34" width="50" height="24" rx="6" stroke="#111827" stroke-width="2.5" fill="none"/>
  <rect x="1200" y="41" width="4" height="10" rx="2" fill="#111827"/>
  <rect x="1154" y="38" width="40" height="16" rx="3" fill="#111827"/>

  <!-- Header -->
  <rect x="0" y="110" width="1290" height="130" fill="white"/>
  <line x1="0" y1="240" x2="1290" y2="240" stroke="#e5e7eb" stroke-width="2"/>
  <path d="M100 160 L75 180 L100 200" stroke="#111827" stroke-width="4" fill="none" stroke-linecap="round" stroke-linejoin="round"/>
  <text x="490" y="188" font-family="SF Pro Display, -apple-system, Helvetica" font-size="40" fill="#111827" font-weight="700">Order Status</text>

  <!-- Success Banner -->
  <rect x="60" y="275" width="1170" height="230" rx="28" fill="#f0fdf4" stroke="#bbf7d0" stroke-width="2"/>
  <!-- Big checkmark circle -->
  <circle cx="645" cy="355" r="55" fill="#dcfce7"/>
  <circle cx="645" cy="355" r="40" fill="#22c55e"/>
  <path d="M625 355 L640 370 L668 340" stroke="white" stroke-width="6" fill="none" stroke-linecap="round" stroke-linejoin="round"/>
  <text x="645" y="450" font-family="SF Pro Display, -apple-system, Helvetica" font-size="36" fill="#15803d" font-weight="700" text-anchor="middle">Your order is being prepared!</text>
  <text x="645" y="490" font-family="SF Pro Display, -apple-system, Helvetica" font-size="26" fill="#16a34a" text-anchor="middle">Estimated pickup: 15 minutes</text>

  <!-- Order Number -->
  <rect x="60" y="535" width="1170" height="100" rx="20" fill="white" filter="url(#shadow2)"/>
  <text x="100" y="598" font-family="SF Pro Display, -apple-system, Helvetica" font-size="30" fill="#6b7280">Order Number</text>
  <text x="1130" y="598" font-family="SF Pro Display, -apple-system, Helvetica" font-size="30" fill="#111827" font-weight="700" text-anchor="end">GL-MLQP7K61-VKLT</text>

  <!-- Order Progress Tracker -->
  <rect x="60" y="670" width="1170" height="450" rx="28" fill="white" filter="url(#shadow1)"/>
  <text x="120" y="740" font-family="SF Pro Display, -apple-system, Helvetica" font-size="36" fill="#111827" font-weight="700">Order Progress</text>

  <!-- Step 1: Order Placed (completed) -->
  <circle cx="160" cy="810" r="24" fill="#22c55e"/>
  <path d="M148 810 L157 819 L172 803" stroke="white" stroke-width="4" fill="none" stroke-linecap="round" stroke-linejoin="round"/>
  <text x="210" y="808" font-family="SF Pro Display, -apple-system, Helvetica" font-size="30" fill="#111827" font-weight="600">Order Placed</text>
  <text x="210" y="840" font-family="SF Pro Display, -apple-system, Helvetica" font-size="24" fill="#6b7280">9:30 AM</text>
  <!-- Connector -->
  <line x1="160" y1="838" x2="160" y2="890" stroke="#22c55e" stroke-width="4"/>

  <!-- Step 2: Confirmed (completed) -->
  <circle cx="160" cy="915" r="24" fill="#22c55e"/>
  <path d="M148 915 L157 924 L172 908" stroke="white" stroke-width="4" fill="none" stroke-linecap="round" stroke-linejoin="round"/>
  <text x="210" y="913" font-family="SF Pro Display, -apple-system, Helvetica" font-size="30" fill="#111827" font-weight="600">Confirmed by Store</text>
  <text x="210" y="945" font-family="SF Pro Display, -apple-system, Helvetica" font-size="24" fill="#6b7280">9:32 AM</text>
  <line x1="160" y1="943" x2="160" y2="995" stroke="#22c55e" stroke-width="4"/>

  <!-- Step 3: Preparing (active, pulsing) -->
  <circle cx="160" cy="1020" r="24" fill="#16a34a"/>
  <circle cx="160" cy="1020" r="32" fill="none" stroke="#16a34a" stroke-width="3" opacity="0.3"/>
  <circle cx="160" cy="1020" r="10" fill="white"/>
  <text x="210" y="1018" font-family="SF Pro Display, -apple-system, Helvetica" font-size="30" fill="#16a34a" font-weight="700">Preparing Your Order</text>
  <text x="210" y="1050" font-family="SF Pro Display, -apple-system, Helvetica" font-size="24" fill="#16a34a">In progress...</text>
  <line x1="160" y1="1048" x2="160" y2="1090" stroke="#d1d5db" stroke-width="4" stroke-dasharray="8,6"/>

  <!-- Step 4: Ready (upcoming) -->
  <circle cx="160" cy="1060" r="0" fill="none"/>
  <line x1="160" y1="1048" x2="160" y2="1095" stroke="#e5e7eb" stroke-width="3" stroke-dasharray="6,6"/>

  <!-- Store Info Card -->
  <rect x="60" y="1160" width="1170" height="260" rx="28" fill="white" filter="url(#shadow1)"/>
  <text x="120" y="1230" font-family="SF Pro Display, -apple-system, Helvetica" font-size="36" fill="#111827" font-weight="700">Pickup Location</text>

  <rect x="120" y="1260" width="80" height="80" rx="16" fill="#dcfce7"/>
  <rect x="135" y="1275" width="50" height="38" rx="6" fill="#22c55e"/>
  <rect x="130" y="1270" width="60" height="10" rx="3" fill="#16a34a"/>

  <text x="225" y="1300" font-family="SF Pro Display, -apple-system, Helvetica" font-size="32" fill="#111827" font-weight="600">Maria's Corner Mart</text>
  <text x="225" y="1340" font-family="SF Pro Display, -apple-system, Helvetica" font-size="26" fill="#6b7280">123 Main Street, Brooklyn, NY 11201</text>

  <!-- Map button -->
  <rect x="900" y="1270" width="260" height="70" rx="16" fill="#f0fdf4" stroke="#bbf7d0" stroke-width="2"/>
  <path d="M935 1295 C929 1295 924 1300 924 1305.5 C924 1314 935 1321 935 1321 C935 1321 946 1314 946 1305.5 C946 1300 941 1295 935 1295Z" fill="#16a34a"/>
  <circle cx="935" cy="1305" r="3.5" fill="white"/>
  <text x="958" y="1314" font-family="SF Pro Display, -apple-system, Helvetica" font-size="26" fill="#16a34a" font-weight="600">Get Directions</text>

  <!-- Order Items Summary -->
  <rect x="60" y="1460" width="1170" height="380" rx="28" fill="white" filter="url(#shadow1)"/>
  <text x="120" y="1530" font-family="SF Pro Display, -apple-system, Helvetica" font-size="36" fill="#111827" font-weight="700">Order Items</text>

  <!-- Item 1 -->
  <g transform="translate(120, 1560)">
    <rect x="0" y="0" width="60" height="60" rx="12" fill="#fef3c7"/>
    <text x="10" y="44" font-family="SF Pro Display, -apple-system, Helvetica" font-size="36">🍟</text>
    <text x="80" y="25" font-family="SF Pro Display, -apple-system, Helvetica" font-size="28" fill="#111827" font-weight="600">Classic Potato Chips</text>
    <text x="80" y="52" font-family="SF Pro Display, -apple-system, Helvetica" font-size="24" fill="#6b7280">Qty: 2</text>
    <text x="980" y="38" font-family="SF Pro Display, -apple-system, Helvetica" font-size="28" fill="#111827" font-weight="600" text-anchor="end">$9.98</text>
  </g>

  <!-- Divider -->
  <line x1="120" y1="1640" x2="1110" y2="1640" stroke="#f3f4f6" stroke-width="2"/>

  <!-- Item 2 -->
  <g transform="translate(120, 1660)">
    <rect x="0" y="0" width="60" height="60" rx="12" fill="#fed7aa"/>
    <text x="10" y="44" font-family="SF Pro Display, -apple-system, Helvetica" font-size="36">🧃</text>
    <text x="80" y="25" font-family="SF Pro Display, -apple-system, Helvetica" font-size="28" fill="#111827" font-weight="600">Orange Juice</text>
    <text x="80" y="52" font-family="SF Pro Display, -apple-system, Helvetica" font-size="24" fill="#6b7280">Qty: 1</text>
    <text x="980" y="38" font-family="SF Pro Display, -apple-system, Helvetica" font-size="28" fill="#111827" font-weight="600" text-anchor="end">$6.99</text>
  </g>

  <line x1="120" y1="1750" x2="1110" y2="1750" stroke="#e5e7eb" stroke-width="2"/>

  <text x="120" y="1800" font-family="SF Pro Display, -apple-system, Helvetica" font-size="32" fill="#111827" font-weight="700">Total</text>
  <text x="1110" y="1800" font-family="SF Pro Display, -apple-system, Helvetica" font-size="32" fill="#16a34a" font-weight="700" text-anchor="end">$18.48</text>

  <!-- Action Buttons -->
  <rect x="60" y="1890" width="570" height="100" rx="20" fill="white" stroke="#e5e7eb" stroke-width="2"/>
  <text x="345" y="1950" font-family="SF Pro Display, -apple-system, Helvetica" font-size="30" fill="#374151" font-weight="600" text-anchor="middle">Contact Store</text>

  <rect x="660" y="1890" width="570" height="100" rx="20" fill="white" stroke="#e5e7eb" stroke-width="2"/>
  <text x="945" y="1950" font-family="SF Pro Display, -apple-system, Helvetica" font-size="30" fill="#dc2626" font-weight="600" text-anchor="middle">Cancel Order</text>

  <!-- Notification Preview -->
  <rect x="60" y="2040" width="1170" height="140" rx="24" fill="#fffbeb" stroke="#fde68a" stroke-width="2"/>
  <circle cx="120" cy="2110" r="28" fill="#fef3c7"/>
  <text x="108" y="2122" font-family="SF Pro Display, -apple-system, Helvetica" font-size="36">🔔</text>
  <text x="170" y="2095" font-family="SF Pro Display, -apple-system, Helvetica" font-size="28" fill="#92400e" font-weight="600">We'll notify you when your order is ready!</text>
  <text x="170" y="2135" font-family="SF Pro Display, -apple-system, Helvetica" font-size="24" fill="#a16207">Push notifications are enabled</text>

  <!-- Bottom Navigation -->
  <rect x="0" y="2596" width="1290" height="200" fill="white"/>
  <line x1="0" y1="2596" x2="1290" y2="2596" stroke="#e5e7eb" stroke-width="2"/>
  <g transform="translate(130, 2625)">
    <path d="M24 4 L4 20 L8 20 L8 36 L18 36 L18 26 L30 26 L30 36 L40 36 L40 20 L44 20 Z" fill="#9ca3af"/>
    <text x="5" y="60" font-family="SF Pro Display, -apple-system, Helvetica" font-size="24" fill="#9ca3af" font-weight="500">Home</text>
  </g>
  <g transform="translate(370, 2625)">
    <rect x="6" y="10" width="36" height="26" rx="4" stroke="#9ca3af" stroke-width="3.5" fill="none"/>
    <rect x="4" y="4" width="40" height="10" rx="3" stroke="#9ca3af" stroke-width="3.5" fill="none"/>
    <text x="-2" y="60" font-family="SF Pro Display, -apple-system, Helvetica" font-size="24" fill="#9ca3af" font-weight="500">Stores</text>
  </g>
  <!-- Orders (active) -->
  <g transform="translate(600, 2625)">
    <rect x="6" y="4" width="32" height="36" rx="4" stroke="#16a34a" stroke-width="3.5" fill="none"/>
    <line x1="14" y1="15" x2="32" y2="15" stroke="#16a34a" stroke-width="3"/>
    <line x1="14" y1="24" x2="28" y2="24" stroke="#16a34a" stroke-width="3"/>
    <line x1="14" y1="33" x2="24" y2="33" stroke="#16a34a" stroke-width="3"/>
    <text x="-4" y="60" font-family="SF Pro Display, -apple-system, Helvetica" font-size="24" fill="#16a34a" font-weight="600">Orders</text>
  </g>
  <g transform="translate(830, 2625)">
    <path d="M8 8 L14 8 L22 32 L38 32" stroke="#9ca3af" stroke-width="3.5" fill="none" stroke-linecap="round"/>
    <circle cx="24" cy="40" r="4" fill="#9ca3af"/>
    <circle cx="36" cy="40" r="4" fill="#9ca3af"/>
    <text x="5" y="60" font-family="SF Pro Display, -apple-system, Helvetica" font-size="24" fill="#9ca3af" font-weight="500">Cart</text>
  </g>
  <g transform="translate(1060, 2625)">
    <circle cx="22" cy="14" r="10" stroke="#9ca3af" stroke-width="3.5" fill="none"/>
    <path d="M4 40 C4 30 14 24 22 24 C30 24 40 30 40 40" stroke="#9ca3af" stroke-width="3.5" fill="none" stroke-linecap="round"/>
    <text x="-2" y="60" font-family="SF Pro Display, -apple-system, Helvetica" font-size="24" fill="#9ca3af" font-weight="500">Profile</text>
  </g>

  <rect x="495" y="2746" width="300" height="10" rx="5" fill="#d1d5db"/>
</svg>
